{"title":"Sandook [2015] - Marathi - DVDScr - 1CD ~ Chinmay_LP ","uid":12147372,"size":733478823,"categoryP":"video","categoryS":"movies","magnet":"?xt=urn:btih:f9eed4d5e8f1d039a691f03a070a4b195cab8586&amp;dn=Sandook+%5B2015%5D+-+Marathi+-+DVDScr+-+1CD+%7E+Chinmay_LP+&amp;tr=udp%3A%2F%2Ftracker.openbittorrent.com%3A80&amp;tr=udp%3A%2F%2Fopen.demonii.com%3A1337&amp;tr=udp%3A%2F%2Ftracker.coppersurfer.tk%3A6969&amp;tr=udp%3A%2F%2Fexodus.desync.com%3A6969","seeders":1,"leechers":0,"uploader":"SS132203","files":2,"time":1437505248,"description":"Sandook [2015] - Marathi - DVDScr - 1CD ~ Chinmay_LP \n &lt;a href=&quot;\nhttp://imgsparrow.co/image/so&quot; rel=&quot;nofollow&quot; target=&quot;_NEW&quot;&gt;\nhttp://imgsparrow.co/image/so&lt;/a&gt;\n &lt;a href=&quot;\nhttp://imgsparrow.co/image/9b&quot; rel=&quot;nofollow&quot; target=&quot;_NEW&quot;&gt;\nhttp://imgsparrow.co/image/9b&lt;/a&gt;\n\nInfo : - \n\nThank Chinmay_LP Not ME\n\nFormat                      : MPEG-4\nFormat profile              : Base Media\nCodec ID                    : isom\nFile size                   : 699 MiB\nDuration                    : 2h 19mn\nOverall bit rate            : 703 Kbps\n\nVideo\nID                          : 1\nFormat                      : AVC\nFormat/Info                 : Advanced Video Codec\nFormat profile              : High@L3\nFormat settings, CABAC      : Yes\nFormat settings, ReFrames   : 4 frames\nCodec ID                    : avc1\nCodec ID/Info               : Advanced Video Coding\nDuration                    : 2h 19mn\nBit rate                    : 604 Kbps\nMaximum bit rate            : 3 266 Kbps\nWidth                       : 720 pixels\nHeight                      : 304 pixels\nDisplay aspect ratio        : 2.35:1\nFrame rate mode             : Constant\nFrame rate                  : 29.970 fps\nColor space                 : YUV\nChroma subsampling          : 4:2:0\nBit depth                   : 8 bits\nScan type                   : Progressive\nBits/(Pixel*Frame)          : 0.092\nStream size                 : 601 MiB (86%)\n\nAudio\nID                          : 2\nFormat                      : MPEG Audio\nFormat version              : Version 1\nFormat profile              : Layer 3\nMode                        : Joint stereo\nMode extension              : MS Stereo\nCodec ID                    : 6B\nDuration                    : 2h 19mn\nBit rate mode               : Constant\nBit rate                    : 96.0 Kbps\nMaximum bit rate            : 100 Kbps\nChannel(s)                  : 2 channels\nSampling rate               : 32.0 KHz\nCompression mode            : Lossy\nStream size                 : 95.5 MiB (14%)\n\nScreens : - \n &lt;a href=&quot;\nhttp://imgsparrow.co/image/sm&quot; rel=&quot;nofollow&quot; target=&quot;_NEW&quot;&gt;\nhttp://imgsparrow.co/image/sm&lt;/a&gt; &lt;a href=&quot;\nhttp://imgsparrow.co/image/sF&quot; rel=&quot;nofollow&quot; target=&quot;_NEW&quot;&gt;\nhttp://imgsparrow.co/image/sF&lt;/a&gt; &lt;a href=&quot;\nhttp://imgsparrow.co/image/sO&quot; rel=&quot;nofollow&quot; target=&quot;_NEW&quot;&gt;\nhttp://imgsparrow.co/image/sO&lt;/a&gt; &lt;a href=&quot;\nhttp://imgsparrow.co/image/sp&quot; rel=&quot;nofollow&quot; target=&quot;_NEW&quot;&gt;\nhttp://imgsparrow.co/image/sp&lt;/a&gt; &lt;a href=&quot;\nhttp://imgsparrow.co/image/s0&quot; rel=&quot;nofollow&quot; target=&quot;_NEW&quot;&gt;\nhttp://imgsparrow.co/image/s0&lt;/a&gt; &lt;a href=&quot;\nhttp://imgsparrow.co/image/sB&quot; rel=&quot;nofollow&quot; target=&quot;_NEW&quot;&gt;\nhttp://imgsparrow.co/image/sB&lt;/a&gt; &lt;a href=&quot;\nhttp://imgsparrow.co/image/sK&quot; rel=&quot;nofollow&quot; target=&quot;_NEW&quot;&gt;\nhttp://imgsparrow.co/image/sK&lt;/a&gt; &lt;a href=&quot;\nhttp://imgsparrow.co/image/s2&quot; rel=&quot;nofollow&quot; target=&quot;_NEW&quot;&gt;\nhttp://imgsparrow.co/image/s2&lt;/a&gt; &lt;a href=&quot;\nhttp://imgsparrow.co/image/s3&quot; rel=&quot;nofollow&quot; target=&quot;_NEW&quot;&gt;\nhttp://imgsparrow.co/image/s3&lt;/a&gt; &lt;a href=&quot;\nhttp://imgsparrow.co/image/si&quot; rel=&quot;nofollow&quot; target=&quot;_NEW&quot;&gt;\nhttp://imgsparrow.co/image/si&lt;/a&gt;\n &lt;a href=&quot;\nhttp://imgsparrow.co/image/sM&quot; rel=&quot;nofollow&quot; target=&quot;_NEW&quot;&gt;\nhttp://imgsparrow.co/image/sM&lt;/a&gt;\n &lt;a href=&quot;\nhttp://imgsparrow.co/image/Vm&quot; rel=&quot;nofollow&quot; target=&quot;_NEW&quot;&gt;\nhttp://imgsparrow.co/image/Vm&lt;/a&gt;","torrent":{"xt":"urn:btih:f9eed4d5e8f1d039a691f03a070a4b195cab8586","amp;dn":"Sandook+%5B2015%5D+-+Marathi+-+DVDScr+-+1CD+%7E+Chinmay_LP+","amp;tr":["udp%3A%2F%2Ftracker.openbittorrent.com%3A80","udp%3A%2F%2Fopen.demonii.com%3A1337","udp%3A%2F%2Ftracker.coppersurfer.tk%3A6969","udp%3A%2F%2Fexodus.desync.com%3A6969"],"infoHash":"f9eed4d5e8f1d039a691f03a070a4b195cab8586","infoHashBuffer":{"type":"Buffer","data":[249,238,212,213,232,241,208,57,166,145,240,58,7,10,75,25,92,171,133,134]},"announce":[],"urlList":[]}}